<?xml version="1.0" standalone="no"?>
<!DOCTYPE svg PUBLIC "-//W3C//DTD SVG 20010904//EN"
 "http://www.w3.org/TR/2001/REC-SVG-20010904/DTD/svg10.dtd">
 <defs>
  <linearGradient id="gradient" x1="0%" y1="100%" x2="0%" y2="0%">
    <stop offset="0%" style="stop-color:currentColor; stop-opacity:1" />
    <stop offset="100%" style="stop-color:currentColor; stop-opacity:0" />
  </linearGradient>
  <mask id="mask">
  <rect x="0" y="0" width="100%" height="100%" fill="url(#gradient)" />
</mask>
</defs>
<svg  id="ornament" version="1.0" xmlns="http://www.w3.org/2000/svg"
 width="693.000000pt" height="699.000000pt" viewBox="0 0 693.000000 699.000000"
 preserveAspectRatio="xMidYMid meet">
 

<g mask="url('#mask')" transform="translate(0.000000,699.000000) scale(0.100000,-0.100000)"
fill="#000000" stroke="none">
<path d="M3196 6895 c-41 -206 -153 -469 -284 -665 -119 -178 -236 -314 -527
-610 -346 -352 -430 -454 -495 -593 -49 -104 -63 -178 -57 -292 7 -126 34
-223 97 -350 94 -188 225 -339 595 -685 380 -355 503 -497 595 -685 64 -131
81 -195 87 -337 7 -147 -12 -238 -74 -367 -108 -225 -321 -351 -598 -353 -193
-2 -336 53 -460 177 -203 202 -201 451 5 544 150 68 298 -31 409 -271 l37 -80
82 86 c214 226 269 537 141 795 -73 147 -199 249 -347 280 -187 39 -400 -32
-615 -206 -67 -54 -84 -64 -98 -55 -10 6 -75 59 -145 118 -258 216 -409 290
-630 309 -246 21 -557 -101 -855 -336 l-53 -43 119 -17 c290 -42 490 -143 700
-354 122 -122 190 -209 410 -520 285 -404 434 -593 680 -858 154 -167 330
-331 655 -611 397 -342 598 -543 829 -828 34 -43 65 -78 69 -78 4 1 34 36 67
78 182 233 439 493 775 782 707 609 897 820 1463 1622 266 376 433 542 663
657 121 60 350 121 455 121 16 0 29 3 29 8 -1 17 -244 183 -360 245 -47 25
-132 62 -190 81 -239 79 -438 70 -648 -29 -112 -53 -183 -103 -356 -247 -70
-60 -132 -108 -137 -108 -5 0 -40 26 -78 58 -95 79 -214 148 -318 185 -76 27
-102 31 -193 31 -125 1 -183 -16 -281 -80 -258 -170 -320 -561 -137 -868 22
-38 74 -104 114 -145 64 -67 73 -74 79 -56 49 140 161 290 250 331 148 70 325
-34 342 -201 21 -206 -177 -434 -437 -502 -91 -23 -261 -21 -362 6 -230 60
-398 229 -463 466 -23 86 -30 248 -15 331 51 278 198 480 655 903 397 366 530
521 631 735 87 184 109 383 58 534 -55 167 -142 279 -494 637 -329 335 -427
448 -557 640 -135 201 -249 472 -294 700 l-11 60 -29 -79 c-16 -43 -47 -144
-69 -225 -138 -505 -79 -836 201 -1125 43 -44 77 -81 76 -82 -1 0 -29 -18 -61
-39 -119 -75 -220 -198 -274 -333 -23 -59 -26 -81 -27 -187 0 -116 1 -122 33
-187 72 -148 230 -238 447 -255 l79 -6 -18 29 c-11 16 -30 45 -43 65 -36 55
-63 143 -63 206 0 148 114 255 302 284 183 29 354 -47 420 -186 55 -117 31
-288 -62 -446 -100 -168 -236 -322 -535 -604 -392 -369 -516 -503 -595 -649
l-36 -64 -37 73 c-54 105 -171 238 -390 447 -587 558 -733 732 -804 956 -47
151 -18 302 74 383 148 130 424 127 571 -5 112 -102 113 -253 1 -427 l-41 -62
79 6 c332 27 515 221 481 509 -21 173 -139 348 -307 457 l-60 38 51 49 c129
125 236 298 272 439 47 187 39 402 -25 660 -21 82 -108 355 -113 355 -2 0 -11
-38 -20 -85z m651 -5196 l376 -251 -377 -377 -376 -376 -377 377 c-207 207
-375 379 -373 381 8 7 745 497 748 497 1 0 172 -113 379 -251z"/>
</g>
</svg>
